<svg width="515" height="417" xmlns="http://www.w3.org/2000/svg"><path d="M869 397.705c-28.098-2.32-56.318.83-84.493 1.847-74.125 2.679-148.283-9.416-222.345-5.337-75.752 4.172-153.49 24.99-226.002 2.668l-3.214-.693c-19.696-4.429-39.36-9.943-59.498-8.54-4.75.33-9.703.876-14.017-1.502-1.979-1.089-3.563-2.855-4.264-5.002-1.47-4.502 1.738-7.069 3.551-10.255 5.402-9.492-2.49-21.01-10.724-28.182-8.233-7.173-18.22-15.187-17.753-26.1.773-18.093 28.277-23.306 33.646-40.6.702-2.262.801-5.123-1.061-6.583-.998-.782-2.339-.961-3.606-.953-11.034.07-18.67 11.977-19.346 22.994-.677 11.02 3.308 21.74 4.786 32.68 2.305 17.075-1.556 34.429-7.274 50.68-2.109 5.996-4.588 12.082-9.078 16.575-5.208 5.216-13.775 7.818-20.091 3.137-4.156-3.08-5.68-8.804-2.855-13.137 2.811-4.308 8.327-4.805 13.153-5.821 5.734-1.208 12.431-4.985 9.095-12.37-.782-1.734-2.012-3.239-3.472-4.46-6.286-5.257-8.225-13.304-9.986-20.98-2.685-11.707-5.387-23.591-4.826-35.589.515-11.003 3.76-21.684 7.369-32.09a441.782 441.782 0 0 1 33.186-73.308c9.992-17.6 21.625-36.332 19.175-56.422-1.995-16.355-12.996-29.96-23.251-42.853-9.74-12.248-19.279-24.864-25.725-39.127-6.446-14.263-9.638-30.458-6.167-45.722.438-1.927 1.035-3.945 3.577-4.615 1.81-.48 3.76.04 5.205 1.227 2.762 2.273 3.543 5.889 4.337 9.27 5.581 23.771 17.105 46.12 33.227 64.452 8.829 10.039 22.116 19.543 34.573 14.698 12.464-4.849 15.854-20.967 14.89-34.313-.605-8.358-4.006-18.513-12.313-19.593-8.294-1.076-14.355 8.241-15.116 16.573-1.853 20.25 17.323 39.744 37.591 38.212 20.268-1.534 36.299-23.69 31.424-43.431-3.571-14.464-15.859-25.3-20.722-39.38-1.976-5.721-.579-14.624 6.07-13.692 2.033.285 3.809 1.525 4.981 3.213 10.106 14.542 20.63 29.31 25.97 46.241 5.035 15.968 4.86 34.43-4.421 48.362-4.198 6.3-9.99 11.339-14.976 17.034-17.03 19.45-23.97 45.6-28.858 70.99-1.506 7.83-3.047 16.08-8.175 22.18-6.522 7.763-17.703 10.3-27.733 8.843-10.03-1.457-19.212-6.302-28.065-11.24-6.01-3.352-12.975-8.776-9.98-15.856 1.858-4.394 6.7-6.765 11.384-5.876 11.143 2.115 21.305 8.622 28.056 17.699 2.914 3.919 5.269 8.607 4.875 13.476-.496 6.125-5.093 10.979-8.88 15.818-17.692 22.614-20.596 55.798-7.1 81.143 6.086 11.425 15.028 21.078 21.7 32.17 4.302 7.153 7.201 17.743-1.578 22.085-1.324.655-2.763 1.047-4.221 1.269-16.152 2.453-32.928.61-48.17-5.262.76 6.002-4.359 11.33-9.972 13.58-5.613 2.247-11.827 2.394-17.687 3.881-10.76 2.729-19.882 6.425-31.868 3.502l-7.335-1.6a8.743 8.743 0 0 1-1.262-.379l-5.86-2.54c-5.93-4.304-13.862-4.228-21.185-3.978-5.522.189-11.085.384-16.466 1.635-3.066.711-6.05 1.76-9.14 2.36-5.078.981-10.3.721-15.47.599a282.923 282.923 0 0 0-48.804 3.064l-6.68.925c-5.642.77-11.39 1.812-16.315 4.673-4.925 2.86-8.935 7.897-9.111 13.591-.176 5.694 4.505 11.528 10.196 11.325 4.106-.146 8.403-4 5.43-8.871-1.406-2.305-3.942-3.67-6.635-3.85-10.576-.701-25.977 1.116-31.301-9.05" stroke="#000" stroke-width="4" fill="none" fill-rule="evenodd" stroke-linecap="round" stroke-linejoin="round"/></svg>