<svg width="85" height="124" xmlns="http://www.w3.org/2000/svg"><g fill="none" fill-rule="evenodd"><path d="M3 119.424a333.691 333.691 0 0 0 39.44 1.502c4.342-.092 8.875-.321 12.648-2.463 1.417-.805 2.723-1.91 3.423-3.377.701-1.467.692-3.338-.314-4.617-1.414-1.8-4.348-1.8-6.21-.465-.791.567-1.476 1.429-1.44 2.4.058 1.522 2.025 2.447 3.432 1.85 1.407-.596 2.148-2.217 2.16-3.74.01-1.524-.566-2.983-1.133-4.398l-4.503-11.23c-.552-1.378-1.325-2.947-2.789-3.224-1.651-.314-3.036 1.221-3.884 2.666-.932 1.587-1.708 3.36-1.609 5.195.172 3.16 2.886 6.214 1.707 9.153-.18.449-.498.9-.972.999-.416.087-.836-.118-1.19-.351-2.883-1.895-3.791-5.832-3.161-9.215.63-3.383 2.486-6.39 4.15-9.405.237-.43.47-.969.21-1.385A8.286 8.286 0 0 0 44.407 93a110.084 110.084 0 0 1-6.401-19.359c-.588-2.55-1.04-5.403.33-7.635 1.1-1.794 3.15-2.774 5.162-3.405 2.012-.632 4.132-1.027 5.955-2.085.934-.542 1.806-1.262 2.867-1.463 1.776-.337 3.542.955 4.328 2.577.785 1.622.809 3.495.772 5.296-.15 7.503-1.136 15.177-4.617 21.832-.194.371-.417.76-.793.949-.589.294-1.337-.046-1.713-.585-.375-.54-.468-1.22-.54-1.872a65.835 65.835 0 0 1-.341-10.024c.126-3.002.455-6.048-.178-8.986-.062-.291-.142-.595-.348-.81-.665-.69-1.825.113-2.232.98-.894 1.908-.602 4.173.128 6.148.73 1.975 1.866 3.777 2.686 5.717" stroke="#000" stroke-linecap="round" stroke-linejoin="round"/><path d="M36.536 65a22.578 22.578 0 0 0-1.1-14.36c-.837-1.962-2.092-3.928-4.092-4.742-2.778-1.129-5.96.356-8.229 2.294-2.269 1.938-4.154 4.39-6.826 5.744-2.192 1.11-4.71 1.373-7.164 1.618-1.432.143-2.89.285-4.302.009-1.412-.276-2.797-1.037-3.466-2.29-.669-1.254-.399-3.021.815-3.782 1.545-.968 3.52.004 5.265.553 3.738 1.174 8.108.105 10.85-2.656 3.02-3.04 3.873-7.531 6.038-11.211 2.531-4.304 7-7.827 7.451-12.779.395-4.32-3.008-8.65-7.359-9.365-.963-.159-2.01-.144-2.842.359-1.2.725-1.616 2.23-1.813 3.601-.433 3.012-.18 6.393 1.942 8.604 1.62 1.689 4.024 2.379 6.332 2.867 2.308.487 4.718.87 6.69 2.146 1.972 1.276 3.379 3.758 2.56 5.936-.156.417-.432.851-1.049.726a1.463 1.463 0 0 1-.608-.298 13.072 13.072 0 0 1-3.735-4.73c-.764-1.645-1.134-3.685-.113-5.19.5-.738 1.27-1.248 2.005-1.758 7.116-4.933 12.929-11.668 16.72-19.375.922-1.874 1.741-3.827 3.06-5.454.17-.209.372-.425.641-.462.235-.032.465.084.663.213 1.347.876 2.046 2.502 2.122 4.088.076 1.587-.393 3.15-.968 4.633a32.451 32.451 0 0 1-5.606 9.368c-1.342 1.565-2.842 3.018-3.93 4.763-.787 1.26-1.343 2.728-1.376 4.187a1.062 1.062 0 0 0 1.726.863c.209-.163.395-.338.535-.512.352-.439-.002-1.128-.553-1.004-1.515.342.727 6.178 2.272 8.461 2.902 4.287 4.69 9.195 6.479 14.031.108.29.177.595.172.904-.015 1.194-.91 1.409-1.704 1.56-.833.159-1.703.308-2.518.078-.814-.23-1.548-.963-1.475-1.793.975-.65 2.073.639 2.526 1.708l2.672 6.307M58 114c.34 1.807 1.492 3.333 2.838 4.475 3.26 2.765 7.593 3.567 11.743 3.757 4.149.19 8.352-.135 12.419.768" stroke="#000" stroke-linecap="round" stroke-linejoin="round"/><path fill="#000" d="M29 16.311L20.658 25 16 20.688 24.342 12z"/><path stroke="#000" stroke-width="3" stroke-linecap="round" stroke-linejoin="round" d="M29 16.311L20.658 25 16 20.688 24.342 12z"/><path fill="#000" d="M26 7.564L12.564 21 11 19.436 24.436 6z"/><path stroke="#000" stroke-width="3" stroke-linecap="round" stroke-linejoin="round" d="M26 7.564L12.564 21 11 19.436 24.436 6z"/><path d="M26 6.42l1.258.36c.344.099.693.198 1.053.217.986.051 1.936-.55 2.37-1.365.259-.488.352-1.068.157-1.581-.196-.513-.716-.933-1.307-.96-.223-.01-.468.044-.607.206-.218.252-.068.654.22.839.286.185.658.21 1.009.218.197.005.402.006.583-.067.172-.068.308-.197.427-.33.722-.812 1.004-1.938.74-2.957" stroke="#000" stroke-width=".5" stroke-linecap="round" stroke-linejoin="round"/></g></svg>