<svg width="258" height="113" xmlns="http://www.w3.org/2000/svg"><g stroke="#000" fill="none" fill-rule="evenodd" stroke-linecap="round" stroke-linejoin="round"><path d="M255.875 104.173c.878.24 1.25 1.27 1.088 2.114-.232 1.216-1.266 2.2-2.468 2.707-1.2.508-2.553.602-3.87.58-4.294-.076-8.62-1.314-12.821-.485-2.968.586-5.636 2.169-8.614 2.707-3.633.656-7.443-.327-10.613-2.114-1.146-.646-2.203-.818-3.473-1.276l-.655-.222c-2.903-1.04-6.085.315-9.158.616a16.33 16.33 0 0 1-7.351-.976c-.692-.263-1.388-.591-1.85-1.14-.446-.528-.63-1.203-.802-1.855l-4.407-16.664c-.5-1.89-1.002-3.803-.995-5.75.01-2.522.872-4.963 1.473-7.422.6-2.46.928-5.111-.09-7.447-.337-.77-.813-1.488-1.068-2.286-.256-.797-.252-1.734.305-2.382.492-.573 1.304-.802 2.077-.925 1.81-.288 4.11.125 4.68 1.76.446 1.283-.416 2.605-1.174 3.75-.758 1.147-1.455 2.617-.725 3.779.582.924 1.88 1.244 3.017 1.12 1.138-.125 2.193-.597 3.29-.903 4.613-1.29 10.033.723 12.452 4.623.414.669.74 1.534.293 2.184-.617.897-2.106.617-3.067.045-1.66-.988-2.993-2.548-4.895-3.01-1.808-.438-3.69.224-5.422.877l-4.984 1.875c-1.688.635-3.403 1.277-5.212 1.465-1.809.19-3.755-.129-5.144-1.23-1.39-1.102-2.042-3.092-1.192-4.6.978-1.737 3.347-2.218 5.419-2.51l4.646-.655c2.159-.305 4.696-.881 5.467-2.795.463-1.15.11-2.43-.25-3.612-.263-.865-.542-1.757-1.15-2.452-1.404-1.603-3.976-1.624-6.176-1.412-2.291.22-4.571.544-6.829.968-.993.187-2.122.495-2.529 1.365-.198.423-.18.903-.159 1.365l.467 10.073c.079 1.706.161 3.43.666 5.07.344 1.117.878 2.173 1.35 3.248a31.199 31.199 0 0 1 2.614 13.681c-.033.872-.12 1.787-.639 2.511-.57.795-1.557 1.218-2.326 1.847-.77.63-1.325 1.75-.722 2.523.541.694 1.725.647 2.478.156.753-.492 1.198-1.286 1.68-2.018.48-.732 1.087-1.473 1.965-1.721 1.143-.322 2.493.453 2.704 1.555.29 1.508-1.238 2.726-2.593 3.585-1.401.89-2.828 1.79-4.44 2.27-1.341.398-2.76.491-4.163.582-2.245.144-4.485.493-6.734.432-2.337-.063-6.509-.931-7.924-.931s-4.124.52-4.124.52c-4.96.804-10.32-1.205-13.319-4.994 2.54-.031 3.189 3.954 1.022 5.196-2.167 1.242-5.166-.023-6.507-2.045-1.34-2.022-1.468-4.524-1.557-6.904l-.444-11.872-.858-22.925c-.036-.955.26-2.257 1.28-2.25.621.004 1.067.55 1.362 1.061 1.583 2.742 1.74 5.984 1.861 9.098l1.096 28.132c.023.6.04 1.23-.242 1.77-1.052 2.004-4.408.674-5.757-1.167-6.398-8.733-.585-22.204-7.773-30.38-.637-.724-1.415-1.409-2.392-1.615-2.643-.559-4.43 2.412-5.261 4.829-3.135 9.106-6.27 18.213-9.403 27.32-2.225-2.832-2.316-6.697-1.507-10.13.809-3.434 2.407-6.665 3.292-10.082 1.087-4.202 1.11-8.71 3.16-12.582 2.674-5.048 8.302-8.089 13.881-10.191 1.617-.61 3.4-1.283 4.185-2.742.449-.835.491-1.814.395-2.745-.582-5.622-5.745-11.102-3.31-16.27 1.098-2.329 3.682-4.278 3.327-6.802-.12-.855-.589-1.679-.472-2.534.117-.855 1.34-1.596 1.938-.94-.27.913.8 1.78 1.81 1.766 1.01-.013 1.898-.6 2.703-1.173 8.512-6.056 16.103-13.248 22.474-21.29-2.554 2.195-7.218-1.912-9.9.145-2.466 1.893.44 5.759-.613 8.578-.444 1.189-1.553 2.035-2.648 2.765-6.781 4.515-15.083 6.994-23.402 6.987-2-.002-4.37.019-5.503 1.565 1.073 1.421 3.355-.186 4.251-1.71 1.684-2.868 3.182-6.219 2.098-9.33-1.084-3.112-6.036-4.903-8.167-2.31-1.407 1.712-.83 4.138-.458 6.27.373 2.134.158 4.834-1.936 5.739-1.326.572-2.881.153-4.244-.34-8.272-2.983-15.493-8.467-20.322-15.433C95.228 4.75 92.807.99 88.931 1c-.753.001-1.582.21-1.984.806-.687 1.02.276 2.288 1.172 3.154a232.94 232.94 0 0 1 23.867 26.913c2.342 3.095 4.713 6.746 3.79 10.441-.653 2.61-2.91 4.909-2.594 7.573 7.18-.415 14.4-.195 21.536.655-.06 1.613-2.045 2.568-3.768 2.603-1.723.034-3.448-.485-5.149-.227-3.49.53-5.503 4.036-6.268 7.271-.766 3.236-.894 6.754-2.903 9.481-1.176 1.597-2.922 2.796-3.929 4.49-2.062 3.468-.474 7.732-.037 11.682.337 3.045-.06 6.16-1.155 9.044-.917 2.42-2.21 5.415-.313 7.268.96.937 2.435 1.184 3.66 1.79 1.225.608 2.285 2.052 1.536 3.144-.318.463-.88.72-1.427.916-3.127 1.115-6.588.917-9.927.717A1196.874 1196.874 0 0 0 0 107.052"/><path d="M186.756 61c-2.714-1.381-4.548-4.243-4.615-7.202-.049-2.17.743-4.512-.352-6.408-1.104-1.911-3.717-2.57-5-4.376-.418-.588-.677-1.277-1.146-1.827-.47-.551-1.27-.949-1.947-.664-1.032.433-.9 1.873-1.41 2.84-.83 1.573-3.121 1.579-4.935 1.348-1.099-.14-2.226-.295-3.193-.817-2.544-1.371-3.064-4.637-4.743-6.934-.548-.75-1.256-1.457-1.4-2.364-.142-.907.715-1.998 1.603-1.668.33.122.564.403.779.674a42.944 42.944 0 0 1 2.306 3.212c1.087 1.671 2.333 3.606 4.36 3.874 1.37.182 2.749-.514 3.641-1.531.893-1.018 1.365-2.316 1.682-3.613.65-2.652.721-5.434.21-8.114-.308-1.606-.822-3.185-.88-4.817-.086-2.43.902-4.878 2.668-6.613.412-.405.885-.783 1.454-.929.576-.147 1.185-.04 1.766.083 1.66.352 3.44.948 4.302 2.36.747 1.226.608 2.762.326 4.158-.245 1.216-.6 2.45-1.384 3.43-.785.98-2.09 1.657-3.35 1.415-1.757-.337-2.695-2.203-3.045-3.897-.18-.87-.273-1.783-.019-2.636.255-.853.92-1.636 1.816-1.838 1.216-.274 2.448.604 2.993 1.688.545 1.084.582 2.33.682 3.53.135 1.626.405 3.24.806 4.825.397 1.567 1.365 3.425 3.037 3.348 1.707-.08 2.702-2.205 4.406-2.343 1.432-.117 2.488 1.192 3.38 2.28 2.278 2.776 5.255 4.926 8.197 7.044 2.16 1.554 4.365 3.133 6.913 3.981 2.296.765 4.887.95 6.8 2.392.228.172.456.379.518.651.147.64-.64 1.088-1.3 1.242-3.588.837-7.367-.42-10.554-2.217-3.186-1.798-6.027-4.142-9.298-5.792-1.23-.621-2.81-1.116-3.929-.322-.792.562-1.054 1.63-.87 2.562.183.931.737 1.752 1.323 2.513 2.863 3.713 6.91 6.851 8.074 11.34.53 2.048.032 4.735-2.047 5.4"/></g></svg>