<svg width="107" height="124" xmlns="http://www.w3.org/2000/svg"><g stroke="#000" fill="none" fill-rule="evenodd" stroke-linecap="round" stroke-linejoin="round"><path d="M7.633 122l41.272-.025c5.634-.003 11.674-.13 16.27-3.4.896-.637 1.762-1.461 1.977-2.54.19-.952-.17-1.943-.734-2.73-2.363-3.308-8.506-2.693-9.811 1.385-.17.532-.508 1.004-1.004 1.257-1.91.972-2.727-1.29-2.56-2.891.543-5.243 4.47-9.508 5.871-14.587 1.789-6.49-.73-13.466.37-20.108.882-5.322 4.006-9.978 7.314-14.23 1.516-1.948 3.137-3.958 3.62-6.382.864-4.333-2.332-8.65-6.307-10.545-3.975-1.896-8.543-1.94-12.944-1.947l-11.78-.021c-3.994-.007-8.078 0-11.846 1.33-8.113 2.86-12.966 11.049-17.244 18.476-.27.468-.648.87-1.126 1.122-1.243.653-1.985-.093-2.632-.783l-1.291-1.378c-1.537-1.641-4.292-.377-4.03 1.86.182 1.56.757 3.185 1.4 4.592a104.673 104.673 0 0 0 3.781 7.45c.435.778 1.045 1.46 1.81 1.914 3.157 1.873 5.912-1.488 6.485-4.557.445-2.378.065-5.21-2.412-6.3-1.472-.646-3.158.013-3.615 1.56-.727 2.467 2.673 3.962 5.017 3.258a7.657 7.657 0 0 0 4.138-3.072c2.464-3.712 1.376-8.992 3.866-12.688 2.585-3.836 8.076-4.47 12.547-3.329 4.471 1.142 8.514 3.629 12.99 4.751 6.399 1.605 13.484.181 18.775-3.773 5.896-4.406 9.434-11.858 8.968-19.25-.093-1.481.124-2.98.793-4.302 3.093-6.114 10.339-.126 14.164-4.873 1.214-1.507 1.546-3.537 1.06-5.413-1.088-4.185-4.702-6.519-8.132-8.66-3.321-2.073-7.151-4.233-10.93-3.216-1.948.525-3.58 1.84-5.427 2.656-4.071 1.797-8.88 1-12.903-.902-2.778-1.314-5.635-3.809-5.213-6.852.234-1.681 1.479-3.04 3.078-3.589C54.566.135 57.666 2.77 58.215 5.85c.423 2.37-.535 4.871-2.219 6.586-1.792 1.823-4.323 2.844-5.894 4.86-3.347 4.295-.921 10.827-3.104 15.819-.228.523-.563 1.08-1.299.972-.407-.06-.764-.307-1.016-.635l-5.924-7.7c-1.154-1.5-2.416-3.084-4.436-3.311-.976-.11-1.972.268-2.517 1.088-.867 1.306-.127 2.737.614 3.92a72.968 72.968 0 0 0 7.124 9.533c2.137 2.421 5.158 4.902 8.233 3.936 3.918-1.23 5.217-7.357 9.317-7.553.437-.021.956.09 1.13.493.091.215.06.46.025.692l-1.478 10.12"/><path d="M60 59c-4.403.733-7.797 4.862-9.38 8.82-1.584 3.96-1.652 8.299-1.613 12.532.028 3.14.106 6.297.747 9.378 1.024 4.926 3.508 9.572 7.094 13.27M66.028 113c-.32 3.55 2.167 6.826 5.14 8.287 2.971 1.46 6.339 1.508 9.597 1.53L107 123M56 44.25c.563.574 1.433.788 2.256.955 1.721.349 3.547.607 5.221.101 1.951-.59 3.402-2.155 4.217-3.88.815-1.725 1.081-3.618 1.34-5.482l.563-4.054c.351-2.528.698-5.13-.004-7.596-.701-2.466-2.709-4.798-5.453-5.24-.711-.113-1.513-.075-2.053.363-.31.251-.496.607-.636.964-.977 2.502 0 5.237.376 7.872.318 2.219.2 4.47.363 6.703.395 5.387 2.471 10.663 5.922 15.044"/></g></svg>