<svg width="1440" height="397" xmlns="http://www.w3.org/2000/svg" xmlns:xlink="http://www.w3.org/1999/xlink"><defs><path id="a" d="M.345.21h331.406V16H.345z"/></defs><g fill="none" fill-rule="evenodd"><path d="M-159.768 389.035c33.533-10.646 69.72-4.252 104.9-3.961 12.758.105 25.51-.61 38.266-.816 63.102-1.02 122.487 11.67 185.15 4.17l3.36-.075a3824.577 3824.577 0 0 1 358.361 6.081c11.392.729 23.198 1.45 33.867-2.614 1.87-.712 3.785-1.652 4.868-3.335 2.558-3.98-1.059-9.242-5.238-11.454-4.18-2.21-9.214-3.108-12.487-6.522-6.471-6.75-2.063-17.662 1.068-26.477a75.55 75.55 0 0 0 3.939-32.95c-1.492-14.388-6.908-29.92.126-42.557 3.437-6.172 9.393-10.54 13.406-16.356 6.853-9.935 7.29-22.753 9.902-34.54 2.612-11.784 9.478-24.56 21.386-26.487 5.803-.941 11.691.95 17.568.824 5.876-.127 12.648-3.604 12.854-9.483a391.626 391.626 0 0 0-73.473-2.384c-1.083-9.706 6.622-18.08 8.848-27.59 3.15-13.46-4.94-26.76-12.931-38.037a833.558 833.558 0 0 0-81.426-98.046c-3.055-3.153-6.343-7.774-4-11.488 1.372-2.173 4.201-2.932 6.77-2.938 13.223-.03 21.48 13.666 28.684 24.764 16.472 25.38 41.109 45.36 69.331 56.229 4.65 1.791 9.955 3.32 14.48 1.234 7.144-3.296 7.878-13.133 6.607-20.904-1.272-7.77-3.24-16.605 1.562-22.843 7.27-9.446 24.165-2.924 27.862 8.412 3.698 11.336-1.413 23.545-7.158 33.99-3.055 5.555-10.844 11.409-14.502 6.233 3.862-5.634 11.948-5.71 18.775-5.704 28.382.025 56.704-9.005 79.841-25.455 3.736-2.656 7.519-5.74 9.032-10.069 3.592-10.273-6.32-24.357 2.096-31.252 9.146-7.494 25.06 7.468 33.775-.528a387.657 387.657 0 0 1-76.68 77.56c-2.745 2.088-5.771 4.226-9.218 4.273-3.448.047-7.095-3.11-6.178-6.435-2.039-2.388-6.211.31-6.61 3.426-.4 3.116 1.199 6.117 1.61 9.232 1.211 9.196-7.606 16.297-11.352 24.783-8.305 18.823 9.307 38.787 11.292 59.268.33 3.394.186 6.958-1.347 10.002-2.675 5.314-8.76 7.767-14.275 9.988-19.035 7.658-38.238 18.735-47.358 37.125-6.998 14.11-7.072 30.531-10.784 45.839-3.018 12.448-8.472 24.219-11.232 36.728-2.76 12.506-2.447 26.585 5.142 36.9l32.08-99.523c2.838-8.805 8.932-19.627 17.951-17.594 3.334.751 5.988 3.248 8.162 5.886 24.524 29.783 4.69 78.86 26.517 110.674 4.602 6.707 16.053 11.554 19.64 4.251.966-1.965.907-4.258.828-6.448l-3.74-102.484c-.414-11.348-.947-23.157-6.348-33.145-1.006-1.864-2.528-3.85-4.645-3.864-3.48-.027-4.49 4.715-4.369 8.195l2.926 83.518 1.515 43.25c.304 8.667.739 17.784 5.313 25.15 4.576 7.366 14.806 11.974 22.199 7.449 7.393-4.524 5.18-19.04-3.486-18.928 10.233 13.801 28.674 21.905 45.44 18.194 1.856-.411 7.483-.975 7.483-.975 7.659-.527 6.692 1.422 14.35.896 4.788-.329 9.629-.667 14.204-2.12 5.501-1.748 10.368-5.029 15.149-8.266 4.622-3.13 9.836-7.57 8.847-13.065-.723-4.01-5.327-6.836-9.226-5.662-2.997.903-5.066 3.601-6.707 6.269-1.642 2.667-3.16 5.561-5.729 7.35-2.57 1.79-6.607 1.962-8.454-.567-2.057-2.816-.164-6.893 2.461-9.188 2.625-2.294 5.995-3.835 7.94-6.73 1.77-2.637 2.064-5.973 2.177-9.148a120.375 120.375 0 0 0-8.918-49.842c-1.61-3.917-3.43-7.763-4.604-11.831-1.725-5.974-2.005-12.257-2.274-18.47-.531-12.233-1.06-24.465-1.592-36.698-.072-1.68-.133-3.432.542-4.974 1.39-3.168 5.238-4.292 8.629-4.97a245.968 245.968 0 0 1 23.296-3.527c7.507-.772 16.285-.697 21.07 5.143 2.078 2.534 3.029 5.782 3.926 8.934 1.225 4.305 2.432 8.97.852 13.158-2.631 6.972-11.287 9.073-18.65 10.18-5.285.798-10.57 1.594-15.853 2.39-7.067 1.064-15.15 2.815-18.487 9.14-2.898 5.496-.676 12.746 4.066 16.76 4.74 4.012 11.38 5.17 17.551 4.482 6.17-.686 12.02-3.025 17.782-5.34 5.668-2.275 11.335-4.552 17.003-6.83 5.912-2.375 12.33-4.79 18.498-3.192 6.49 1.68 11.042 7.365 16.7 10.965 3.279 2.084 8.36 3.103 10.464-.165 1.526-2.37.415-5.518-1-7.956-8.252-14.21-26.743-21.542-42.48-16.845-3.744 1.12-7.345 2.837-11.225 3.291-3.88.455-8.309-.711-10.293-4.08-2.492-4.23-.115-9.588 2.473-13.762 2.587-4.174 5.527-8.991 4.004-13.661-1.942-5.96-9.79-7.464-15.966-6.416-2.637.448-5.408 1.283-7.086 3.37-1.902 2.36-1.912 5.773-1.042 8.679.872 2.906 2.495 5.521 3.642 8.329 3.475 8.508 2.36 18.17.311 27.128-2.05 8.96-4.993 17.848-5.026 27.04-.025 7.092 1.69 14.06 3.396 20.946l15.033 60.704c.589 2.379 1.217 4.837 2.734 6.76 1.58 1.998 3.952 3.195 6.313 4.155 7.902 3.21 14.398 1.478 21.521-3.214 0 0 5.9-5.904 9.863-6.435 3.962-.528 9.405 1.19 11.307 2.182 9.537 4.973 20.448-.749 30.873-3.394 5.678-1.442 11.699-1.583 17.136-3.762 5.438-2.18 10.397-7.344 9.662-13.159 13.996 5.391 29.327 7.277 44.21 5.436 3.296-.407 6.775-1.094 9.19-3.375 5.151-4.874 2.54-13.516-1.115-19.594-6.463-10.75-15.127-20.106-21.022-31.178-13.075-24.562-10.262-56.722 6.879-78.636 3.668-4.69 8.122-9.394 8.6-15.33.383-4.718-1.898-9.262-4.721-13.059-5.129-6.899-12.29-12.266-20.348-15.248-6.889-2.552-17.095-1.58-18.428 5.648-1.098 5.957 4.949 10.56 10.235 13.508 8.577 4.786 17.471 9.482 27.189 10.894 9.718 1.412 20.55-1.049 26.868-8.57 4.969-5.914 6.462-13.909 7.921-21.495 4.735-24.607 11.46-49.95 27.96-68.798 4.829-5.52 10.441-10.403 14.507-16.508 8.992-13.502 9.161-31.394 4.282-46.868-4.879-15.474-14.223-29.084-23.484-42.404-1.87-2.69-4.294-5.675-7.568-5.587-5.52.148-6.617 8.109-4.813 13.332 4.71 13.645 16.617 24.148 20.076 38.163 4.722 19.133-10.809 40.605-30.445 42.09-19.634 1.486-38.214-17.405-36.42-37.03.74-8.076 6.61-17.105 14.647-16.06 8.047 1.044 11.342 10.887 11.928 18.986.934 12.934-2.35 28.554-14.427 33.254-12.068 4.696-24.94-4.515-33.494-14.245-15.62-17.764-26.783-39.425-32.19-62.461-.693-2.947-1.373-6.077-3.45-8.28-2.075-2.201-6.084-2.88-7.992-.533-.714.878-1.018 2.01-1.269 3.112-3.363 14.792-.27 30.487 5.975 44.31 6.245 13.822 15.485 26.049 24.924 37.92 9.934 12.494 20.592 25.678 22.525 41.528 2.375 19.47-8.897 37.624-18.576 54.679a428.174 428.174 0 0 0-32.153 71.044c-3.495 10.085-6.64 20.437-7.14 31.1-.542 11.627 2.076 23.144 4.677 34.49 1.447 6.307 3.017 12.875 7.174 17.832 2.865 3.415 7.135 6.645 6.696 11.082-.436 4.4-5.32 6.817-9.643 7.728-4.322.91-9.212 1.39-12.079 4.752-3.993 4.686-.963 12.799 4.743 15.106 5.705 2.307 12.473-.169 16.823-4.525 4.35-4.356 6.752-10.252 8.796-16.063 5.539-15.75 9.28-32.567 7.046-49.114-1.431-10.604-5.291-20.992-4.636-31.672.656-10.678 8.051-22.217 18.742-22.284 1.227-.008 2.527.165 3.493.922 1.805 1.415 1.709 4.188 1.03 6.38-5.203 16.762-31.85 21.812-32.598 39.348-.451 10.576 9.223 18.342 17.2 25.293 7.977 6.95 15.623 18.114 10.39 27.312-1.243 2.184-3.164 4.07-3.675 6.532-.808 3.896 2.397 7.696 6.133 9.055 3.736 1.36 7.847.932 11.812.654 19.51-1.36 23.392-5.056 41.732 1.74 0 0 9.814 4.685 14.765 4.594 4.953-.089 14.512-7.597 18.556-8.574 9.77-2.36 19.935-4.642 29.358-1.139 2.161.803 4.495 2.066 4.702 4.567.136 1.658-.816 3.234-2.243 4.086-2.643 1.579-5.779.793-8.305-.638-7.16-4.06-10.494-12.748-11.052-20.964-1.526-22.486 13.398-43.46 12.807-65.989-.348-13.235-6.016-25.647-10.648-38.05-2.304-6.172-4.381-12.992-2.258-19.23 2.72-7.989 11.56-12.343 19.939-13.279 8.38-.935 16.84.675 25.267.395 8.426-.282 17.563-3.035 22.053-10.178 3.877-6.17 3.365-14.153 1.438-21.179-1.93-7.028-5.13-13.717-6.304-20.91-3.529-21.622 12.134-42.149 30.569-53.964 20.228-12.965 44.24-18.996 64.281-32.42 3.532-2.365 5.178-6.875 3.718-10.87-2.121-5.8-8.892-5.535-14.098-4.124-16.777 4.547-31.003 15.372-45.47 25.01-14.469 9.64-30.551 18.56-47.931 18.424-17.38-.138-35.755-12.563-36.614-29.937-.7-14.116 14.57-29.155 28.285-18.845 4.45 3.347 7.327 8.374 8.436 13.833 1.564 7.702 1.661 16.64-2.28 23.786-2.935 5.322-8.383 9.482-14.452 9.786-1.872.093-3.851-.212-5.329-1.367-1.725-1.349-2.458-3.595-2.901-5.74-1.897-9.187.025-19.103 5.218-26.913.95-1.429 2.14-2.897 4.374-2.364 2.099.5 3.528 2.455 3.643 4.61.45 8.45 1.137 19.045-5.368 25.06-7.993 7.391-21.083 2.876-29.76-3.7-12.846-9.737-22.754-23.305-28.125-38.513-1.983-5.617-3.795-11.933-6.597-17.216-3.544-6.683-13.652-3.451-12.795 4.065 1.34 11.756 7.918 23.406 15.034 33.302 10.106 14.051 22.105 28.267 23.436 45.527.36 4.65-.077 9.448 1.372 13.881 1.732 5.3 5.927 9.387 8.6 14.278 4.597 8.414 4.405 18.526 4.093 28.112-.229 7.058-1.036 15.225-7.06 19.034-.687.434-1.44.79-2.242.918-3.887.625-5.28-3.55-4.297-6.502.798-2.4 2.647-4.27 4.112-6.33 6.953-9.772 4.967-23.11 7.942-34.731 3.166-12.363 12.522-22.973 24.387-27.654 1.132-.446 2.343-.848 3.545-.662 1.925.297 3.301 1.992 4.319 3.656 7.061 11.547 5.894 26.106 8.465 39.398 2.515 13.01 8.72 25.016 12.118 37.824 8.207 30.935-.426 64.163 5.76 95.567 4.97 25.255 19.461 49.557 15.477 74.987-.26 1.66-.764 3.534-2.272 4.274-.89.436-1.952.363-2.903.084-6.52-1.92-7.016-10.69-8.904-17.225-2.63-9.113-9.994-15.975-14.718-24.197-15.467-26.923-.768-63.666-16.13-90.649-1.672-2.935-3.96-5.913-7.862-5.66-2.494.162-4.687 1.654-6.106 3.712-2.567 3.725-2.552 8.348-2.446 12.743a651.973 651.973 0 0 0 3.471 53.205c1.414 13.29 3.147 27.274-2.841 39.43-.892 1.811-2.632 3.156-4.644 3.319-5.4.438-6.238-7.368-5.066-12.53 4.121-18.147 6.387-35.232 10.508-53.379" stroke="#000" stroke-width="3" stroke-linecap="round" stroke-linejoin="round"/><path d="M766.85 220c-9.403-4.955-15.756-15.22-15.986-25.834-.17-7.78 2.571-16.184-1.22-22.983-3.825-6.857-12.878-9.222-17.322-15.697-1.448-2.111-2.345-4.581-3.97-6.557-1.628-1.975-4.397-3.4-6.747-2.38-3.574 1.553-3.115 6.72-4.884 10.19-2.877 5.638-10.811 5.661-17.095 4.83-3.806-.502-7.711-1.054-11.062-2.926-8.81-4.92-10.613-16.635-16.43-24.875-1.899-2.688-4.352-5.227-4.848-8.478-.496-3.253 2.476-7.166 5.55-5.985 1.144.44 1.955 1.448 2.699 2.421a153.407 153.407 0 0 1 7.988 11.517c3.768 5.998 8.083 12.936 15.107 13.9 4.742.652 9.522-1.845 12.612-5.494 3.092-3.65 4.729-8.307 5.828-12.96a70.98 70.98 0 0 0 .723-29.103c-1.063-5.76-2.845-11.426-3.046-17.28-.297-8.715 3.125-17.497 9.243-23.72 1.428-1.453 3.067-2.81 5.04-3.33 1.992-.527 4.102-.145 6.115.296 5.75 1.264 11.918 3.4 14.902 8.466 2.59 4.396 2.109 9.907 1.132 14.914-.851 4.36-2.077 8.787-4.796 12.302-2.72 3.514-7.24 5.944-11.602 5.077-6.089-1.208-9.339-7.901-10.55-13.98-.622-3.122-.949-6.397-.067-9.455.883-3.058 3.186-5.868 6.29-6.59 4.213-.983 8.483 2.166 10.37 6.053 1.888 3.889 2.015 8.354 2.362 12.662a110.104 110.104 0 0 0 2.793 17.308c1.374 5.622 4.73 12.286 10.519 12.008 5.916-.284 9.362-7.907 15.264-8.405 4.963-.419 8.62 4.278 11.712 8.178 7.89 9.957 18.204 17.67 28.394 25.266 7.483 5.578 15.122 11.241 23.951 14.282 7.954 2.743 16.928 3.403 23.556 8.579.79.617 1.578 1.358 1.794 2.336.51 2.292-2.216 3.903-4.501 4.454-12.432 3.003-25.523-1.505-36.564-7.953-11.039-6.449-20.88-14.856-32.213-20.776-4.262-2.227-9.735-4.002-13.61-1.153-2.742 2.016-3.652 5.848-3.015 9.188.636 3.34 2.554 6.287 4.586 9.017 9.916 13.317 23.938 24.573 27.968 40.672 1.84 7.35.111 16.987-7.09 19.371" stroke="#000" stroke-width="3" stroke-linecap="round" stroke-linejoin="round"/><path d="M997.57 101.784c5.14-3.53 9.709-8.866 12.694-15.04 2.986-6.174 4.829 0 4.829 0l8.101 13.55s1.662-.576.78 1.152c-.884 1.725-3.194 7.296-12.826 16.583-9.633 9.287-13.916-.628-13.916-.628l.337-15.617z" fill="#FFF"/><path d="M1108.51 378.959c-1.754-2.87-4.495-5.148-7.67-6.37-1.808-.696-4.077-.977-5.515.305-1.348 1.2-1.37 3.372-.503 4.942 1.723 3.12 5.98 4.009 9.543 3.391 3.564-.615 6.829-2.351 10.35-3.16 9.075-2.084 18.235 2.145 26.971 5.323 29.888 10.874 62.685 10.051 94.546 9.086" stroke="#000" stroke-width="3" stroke-linecap="round" stroke-linejoin="round"/><g transform="translate(1233.232 382)"><mask id="b" fill="#fff"><use xlink:href="#a"/></mask><path d="M2.066 12.053c19.83 2.576 38.33-5.868 57.777-7.833C70.78 3.117 81.297 5.295 91.947 7.54c9.999 2.107 19.987 3.394 30.199 3.823 22.048.924 44.05.48 66.1 1.922 22.131 1.446 44.294 3.271 66.493 2.554 25.153-.815 50.042-6.782 75.272-4.998 2.325.165 2.315-3.48 0-3.643-22.1-1.563-43.82 3.023-65.786 4.526-22.151 1.516-44.362.047-66.474-1.445-22.114-1.49-44.088-2.032-66.239-2.322-11.486-.15-22.918-.81-34.214-3.023C87.653 3.045 78.068.448 68.187.225 45.715-.28 24.676 11.348 2.066 8.41c-2.305-.3-2.283 3.346 0 3.643" fill="#000" mask="url(#b)"/></g></g></svg>