<svg width="526" height="400" xmlns="http://www.w3.org/2000/svg"><path d="M524 395.62c-30.169-2.97-60.516-5.94-90.752-3.74-21.94 1.596-43.685 5.908-65.684 6.112-20.649.192-41.206-3.242-61.854-3.002-24.933.288-51.014 5.757-74.065-3.756-25.257-10.422-40.687-36.962-46.276-63.708-3.101-14.846-7.897-29.35-6.037-44.403 1.977-15.991 14.51-35.578 6.01-49.265-7.014-11.293-27.727-19.944-40.99-19.065-13.265.879-25.104 4.646-37.367 13-6.39 4.358-11.775 17.65-5.723 22.461 9.575 4.03 50.77-25.177 60.964-50.483 5.164-12.82 6.34-26.842 7.46-40.618 1.344-16.54 2.54-33.96-4.522-48.976-5.417-11.517-15.129-20.342-24.598-28.846L81.531 28.309c-6.713-6.03-13.88-15.969-8.189-22.973 4.35-5.354 13.42-3.734 18.325 1.118 4.902 4.854 7.008 11.759 9.922 18.01 13.638 29.244 45.346 44.772 74.739 58.089 6.823 3.089 15.984 5.734 20.853.045 8.674-10.136-11.323-25.957-4.738-37.56 1.587-2.795 4.472-4.602 7.398-5.936 12.95-5.904 32.548-.913 34.064 13.237.739 6.9-3.067 13.363-4.857 20.066-1.79 6.704-.276 15.703 6.393 17.621 4.404 1.268 8.917-1.215 12.897-3.488a227.203 227.203 0 0 1 55.415-22.558c4.17-1.085 10.068-1.116 11.159 3.051.476 1.81-.296 3.702-1.201 5.34-6.778 12.29-20.723 18.335-32.278 26.306-21.909 15.111-36.955 39.797-40.344 66.196-1.085 8.44-1.317 17.736-6.932 24.132-5.735 6.532-15.447 7.916-24.086 6.935-19.386-2.202-37.27-13.926-56.765-13.127-22.332.914-40.35 17.744-56.147 33.552l-36.048 36.07c-10.07 10.077-22.57 20.982-36.6 18.511-5.707-1.006-11.685-4.192-16.938-1.742-5.11 2.383-6.658 9.32-4.841 14.658 1.82 5.337 6.1 9.395 10.196 13.27 2.978 2.814 8.58 5.952 8.58 5.952 2.833 1.516 6.326.85 9.343-.254 13.135-4.807 22.244-16.505 31.53-26.965A260.087 260.087 0 0 1 96.7 243.628c11.433-8.936 23.968-17.068 38.128-20.25 14.158-3.183 30.27-.66 40.678 9.449 13.757 13.362 13.977 34.996 13.263 54.159l-1.95 52.35c-.716 19.182 1.339 43.004 19.027 50.462.943.399 1.939.739 2.963.727 6.297-.073 5.108-9.778 2.678-15.588-8.135-19.437-4.406-41.552-.546-62.266l11.528-61.865c2.541-13.643 5.01-28.152-.109-41.053-6.735 3.537-8.61 12.185-9.326 19.758a209.406 209.406 0 0 0 6.12 73.479c3.842 14.408 9.25 29.562 4.86 43.815-3.599 11.69-13.15 20.41-22.301 28.527-6.572 5.83-13.424 11.819-21.83 14.374-6.884 2.093-14.243 1.7-21.426 1.29-13.343-.767-26.685-1.532-40.03-2.297l-14.04-1.274c-7.747-.936-15.558 1.677-23.337 1.047-11.017-.891-20.734-8.148-31.743-9.138-7.256-.653-14.449 1.476-21.712 2.046-3.023.24-6.072.206-9.087-.126-4.04-.444-8.229-1.542-11.12-4.398-1.147-1.133-2.083-2.85-1.397-4.31.726-1.537 2.79-1.844 4.474-1.615 4.845.66 9.177 4.224 10.756 8.852" stroke="#000" stroke-width="4" fill="none" fill-rule="evenodd" stroke-linecap="round" stroke-linejoin="round"/></svg>