<svg width="704" height="507" xmlns="http://www.w3.org/2000/svg"><path d="M1058 483.936c-34.223-2.825-68.595 1.01-102.911 2.25-90.285 3.262-180.609-11.468-270.816-6.501-92.265 5.081-186.949 30.437-275.268 3.25l-3.915-.844c-23.99-5.394-47.94-12.11-72.468-10.4-5.786.402-11.818 1.065-17.073-1.83-2.41-1.327-4.34-3.478-5.193-6.092-1.792-5.483 2.117-8.61 4.325-12.49 6.58-11.56-3.033-25.588-13.062-34.323-10.028-8.737-22.192-18.497-21.623-31.788.941-22.036 34.44-28.384 40.981-49.448.854-2.754.976-6.238-1.293-8.018-1.215-.952-2.848-1.17-4.391-1.16-13.44.085-22.74 14.587-23.564 28.005-.825 13.422 4.03 26.478 5.829 39.803 2.807 20.795-1.895 41.93-8.859 61.724-2.57 7.302-5.589 14.713-11.058 20.186-6.343 6.352-16.777 9.522-24.47 3.82-5.063-3.752-6.919-10.723-3.477-16 3.423-5.246 10.141-5.852 16.02-7.09 6.983-1.47 15.141-6.07 11.077-15.065-.953-2.112-2.45-3.944-4.229-5.43-7.655-6.404-10.018-16.205-12.162-25.554-3.27-14.258-6.562-28.732-5.879-43.344.628-13.4 4.58-26.41 8.976-39.084a538.038 538.038 0 0 1 40.42-89.283c12.17-21.434 26.34-44.248 23.356-68.716-2.431-19.92-15.83-36.488-28.32-52.192-11.864-14.917-23.482-30.282-31.333-47.654-7.851-17.37-11.74-37.095-7.512-55.685.535-2.347 1.261-4.805 4.357-5.621 2.205-.583 4.58.048 6.34 1.495 3.364 2.768 4.316 7.172 5.282 11.289 6.799 28.952 20.834 56.172 40.471 78.498 10.753 12.227 26.937 23.802 42.11 17.901 15.18-5.905 19.31-25.536 18.135-41.79-.736-10.18-4.879-22.548-14.997-23.863-10.102-1.311-17.484 10.037-18.412 20.184-2.256 24.663 21.1 48.405 45.787 46.54 24.686-1.87 44.211-28.852 38.273-52.896-4.349-17.615-19.315-30.814-25.238-47.963-2.407-6.966-.706-17.809 7.393-16.675 2.476.348 4.639 1.858 6.067 3.914 12.308 17.71 25.126 35.697 31.63 56.318 6.133 19.447 5.921 41.932-5.384 58.9-5.112 7.673-12.167 13.81-18.24 20.747-20.744 23.689-29.196 55.536-35.15 86.46-1.834 9.536-3.71 19.583-9.957 27.014-7.944 9.453-21.561 12.544-33.778 10.77-12.218-1.775-23.4-7.676-34.183-13.69-7.32-4.083-15.804-10.689-12.156-19.312 2.264-5.35 8.16-8.238 13.866-7.156 13.573 2.576 25.949 10.5 34.172 21.556 3.55 4.773 6.418 10.483 5.938 16.412-.604 7.46-6.203 13.372-10.815 19.265-21.55 27.542-25.087 67.958-8.648 98.826 7.411 13.915 18.304 25.671 26.43 39.181 5.24 8.711 8.77 21.61-1.923 26.897-1.612.798-3.364 1.275-5.141 1.545-19.673 2.988-40.105.743-58.67-6.408.924 7.31-5.31 13.8-12.146 16.539-6.837 2.737-14.405 2.916-21.543 4.727-13.106 3.323-24.216 7.825-38.815 4.265l-8.934-1.95a10.65 10.65 0 0 1-1.537-.46l-7.136-3.094c-7.224-5.242-16.885-5.149-25.805-4.844-6.725.23-13.5.468-20.055 1.99-3.734.867-7.368 2.146-11.132 2.874-6.185 1.196-12.545.88-18.842.73a344.62 344.62 0 0 0-59.444 3.732l-8.135 1.126c-6.872.939-13.874 2.208-19.873 5.692-5.998 3.484-10.883 9.619-11.097 16.554-.214 6.934 5.487 14.04 12.42 13.792 5-.178 10.234-4.872 6.614-10.805-1.713-2.807-4.803-4.47-8.082-4.688-12.882-.854-31.64 1.359-38.125-11.023" stroke="#000" stroke-width="4" fill="none" fill-rule="evenodd" stroke-linecap="round" stroke-linejoin="round"/></svg>