<svg width="111" height="159" xmlns="http://www.w3.org/2000/svg"><g fill="none" fill-rule="evenodd"><path d="M2.526 151.966a427.508 427.508 0 0 0 50.71 1.938c5.582-.118 11.41-.414 16.26-3.178 1.823-1.038 3.501-2.464 4.402-4.357.901-1.893.89-4.307-.404-5.958-1.819-2.321-5.59-2.323-7.984-.6-1.017.732-1.898 1.844-1.85 3.097.073 1.964 2.602 3.158 4.411 2.389 1.809-.77 2.762-2.862 2.776-4.828.014-1.966-.727-3.849-1.456-5.674l-5.789-14.49c-.71-1.78-1.704-3.803-3.586-4.161-2.123-.404-3.903 1.576-4.994 3.44-1.199 2.048-2.196 4.335-2.068 6.704.221 4.078 3.71 8.018 2.194 11.81-.232.579-.64 1.16-1.25 1.289-.534.113-1.074-.152-1.53-.453-3.707-2.445-4.874-7.525-4.064-11.89.81-4.365 3.197-8.245 5.336-12.136.305-.555.605-1.25.27-1.787a10.714 10.714 0 0 0 1.855 4.751 142.401 142.401 0 0 1-8.23-24.979c-.755-3.29-1.336-6.972.424-9.852 1.414-2.314 4.05-3.578 6.637-4.393 2.588-.815 5.314-1.326 7.658-2.69 1.2-.7 2.32-1.63 3.685-1.889 2.284-.434 4.554 1.233 5.564 3.326 1.01 2.093 1.04 4.51.993 6.833-.193 9.681-1.46 19.583-5.936 28.171-.25.479-.536.981-1.02 1.224-.756.38-1.719-.06-2.201-.755-.483-.695-.602-1.573-.695-2.415a85.25 85.25 0 0 1-.44-12.934c.164-3.874.587-7.804-.227-11.595-.08-.376-.183-.768-.448-1.045-.855-.891-2.347.146-2.87 1.265-1.149 2.46-.774 5.384.165 7.932.94 2.549 2.4 4.873 3.454 7.376" stroke="#000" stroke-width="2" stroke-linecap="round" stroke-linejoin="round"/><path d="M47.215 84c1.561-6.142 1.057-12.782-1.414-18.623-1.076-2.545-2.69-5.095-5.261-6.15-3.571-1.464-7.662.462-10.58 2.975-2.917 2.514-5.34 5.694-8.776 7.449-2.818 1.44-6.057 1.78-9.21 2.099-1.842.185-3.716.37-5.532.011-1.815-.358-3.597-1.344-4.456-2.97-.86-1.626-.514-3.918 1.048-4.905 1.986-1.255 4.525.006 6.769.717 4.805 1.524 10.424.137 13.95-3.444 3.882-3.943 4.98-9.767 7.763-14.539 3.254-5.581 9-10.15 9.58-16.572.507-5.603-3.867-11.218-9.462-12.146-1.238-.206-2.585-.187-3.654.465-1.544.941-2.078 2.892-2.332 4.67-.555 3.906-.23 8.291 2.498 11.16 2.084 2.189 5.174 3.084 8.141 3.717 2.968.632 6.066 1.13 8.601 2.784 2.536 1.654 4.345 4.874 3.293 7.697-.202.542-.556 1.105-1.35.942a1.874 1.874 0 0 1-.781-.387 16.93 16.93 0 0 1-4.803-6.133c-.981-2.134-1.457-4.78-.145-6.732.643-.956 1.632-1.617 2.578-2.28 9.15-6.397 16.623-15.132 21.497-25.126 1.186-2.43 2.239-4.963 3.936-7.073.217-.27.477-.551.823-.599.302-.042.597.108.851.275 1.732 1.137 2.631 3.245 2.73 5.303.097 2.057-.506 4.084-1.245 6.008a42.16 42.16 0 0 1-7.208 12.148c-1.725 2.03-3.654 3.915-5.054 6.178-1.01 1.635-1.725 3.537-1.768 5.43-.027 1.18 1.293 1.849 2.219 1.119.269-.211.508-.438.688-.663.452-.57-.002-1.463-.711-1.302-1.949.443.934 8.01 2.921 10.972 3.732 5.56 6.029 11.925 8.33 18.196.139.376.227.773.222 1.173-.02 1.548-1.17 1.827-2.192 2.023-1.07.206-2.189.4-3.236.101-1.048-.298-1.992-1.248-1.898-2.325 1.254-.844 2.666.828 3.248 2.215l3.436 8.179M74.526 147c.44 2.209 1.935 4.073 3.68 5.469 4.226 3.38 9.842 4.36 15.221 4.592 5.379.232 10.827-.165 16.1.939" stroke="#000" stroke-width="2" stroke-linecap="round" stroke-linejoin="round"/><path fill="#000" d="M36.526 19.306L26.26 30l-5.733-5.307L30.794 14z"/><path stroke="#000" stroke-width="3" stroke-linecap="round" stroke-linejoin="round" d="M36.526 19.306L26.26 30l-5.733-5.307L30.794 14z"/><path fill="#000" d="M34.526 10.981L17.508 28l-1.982-1.981L32.546 9z"/><path stroke="#000" stroke-width="3" stroke-linecap="round" stroke-linejoin="round" d="M34.526 10.981L17.508 28l-1.982-1.981L32.546 9z"/><path d="M33.526 10.13l1.678.54c.459.148.924.298 1.404.325 1.315.077 2.58-.824 3.159-2.047.346-.732.47-1.602.21-2.372-.262-.769-.954-1.399-1.742-1.44-.299-.015-.624.067-.81.309-.291.379-.09.981.292 1.259.383.277.879.314 1.346.327.264.008.536.008.778-.1.23-.103.41-.297.57-.497.962-1.216 1.338-2.905.985-4.434" stroke="#000" stroke-width="2" stroke-linecap="round" stroke-linejoin="round"/></g></svg>