<svg width="113" height="159" xmlns="http://www.w3.org/2000/svg"><g stroke="#000" stroke-width="2" fill="none" fill-rule="evenodd"><path d="M1 154.195c18.141 2.545 37.023 5.033 54.456-.606 2.713-.877 5.697-2.296 6.46-5.05.59-2.126-.564-4.598-2.572-5.507-2.007-.909-4.62-.143-5.824 1.705-.816 1.254-.998 2.84-1.819 4.09-.822 1.25-2.863 1.944-3.734.728-1.204-1.683 1.452-3.43 3.482-3.813 4.552-.86 10.099-2.714 10.69-7.319.261-2.041-.612-4.031-1.272-5.981-2.484-7.339-1.505-16.578 4.68-21.23.867-.65 2.259-1.122 2.895-.244.374.517.241 1.23.093 1.85l-1.23 5.145c8.761-2.515 10.944-14.845 19.108-18.906.953-.474 2.031-.826 3.073-.605 1.129.24 2.014 1.108 2.744 2.004 6.45 7.924 5.234 19.31 5.455 29.534a88.087 88.087 0 0 0 2.17 17.605c.22.966.465 1.95 1.001 2.782 1.31 2.031 4.407 2.611 6.36 1.192 1.955-1.42 2.367-4.55.848-6.429-1.7-2.102-5.377-2.936-5.428-5.642-.05-2.628 3.322-3.59 5.463-5.107 3.754-2.66 4.073-8.041 3.845-12.643-.383-7.742-1.297-15.543-3.959-22.82-2.662-7.278-7.206-14.048-13.684-18.285-1.155 2.004-.426 4.523.328 6.71l6.838 19.832a82.484 82.484 0 0 1-9.798-11.512c-2.145-3.048-4.163-6.325-7.221-8.452-3.06-2.126-7.551-2.75-10.363-.305-1.431 1.244-2.21 3.06-2.94 4.811l-3.754 8.98c-.58 1.39-1.165 2.97-.576 4.356.983 2.314 4.627 2.172 6.32.317 1.692-1.855 1.962-4.566 2.148-7.073.333-4.473.65-9.075-.702-13.35-.982-3.1-2.79-5.855-4.234-8.766-3.309-6.666-4.687-14.095-6.186-21.386-.459-2.23-.941-4.486-1.953-6.525-1.652-3.326-4.568-5.811-6.873-8.72-7.492-9.457-8.02-22.499-8.217-34.572-.028-1.68.448-3.93 2.123-3.987 1.972-.066 2.26 2.8 2.01 4.76-1.655 13 6.1 26.641 18.103 31.845 2.469 1.07 5.198 1.817 7.84 1.312 2.566-.49 4.787-2.113 6.592-4.005 1.781-1.868 3.284-4.13 3.662-6.686.377-2.555-.59-5.42-2.8-6.747-3.296-1.978-8.056.637-8.796 4.414-.74 3.776 1.96 7.682 5.551 9.048 3.59 1.367 7.735.546 11.061-1.38 5.108-2.957 8.616-8.524 9.085-14.417.212-2.658.634-6.304 3.288-6.484 1.957-.134 3.257 1.982 3.844 3.858 2.129 6.79 1.006 14.527-2.964 20.43-3.97 5.903-10.704 9.849-17.784 10.422-2.386.192-4.852.033-7.104.846-5.867 2.118-7.622 9.497-8.001 15.735-.241 3.97-.283 7.952-.124 11.927.08 2.016 1.035 4.73 3.013 4.35.859-.164 1.468-.92 1.93-1.664 4.238-6.84 2.199-15.734 3.936-23.594.33-1.495.832-3.013 1.881-4.126 2.988-3.169 8.746-1.141 10.93 2.63 2.183 3.771 1.963 8.4 2.057 12.76a75.745 75.745 0 0 0 2.672 18.362"/><path d="M33 149c5.698 5.509 14.107 7.312 22.089 7.73 7.982.42 16.077-.288 23.911 1.27"/></g></svg>