<svg width="1725" height="138" xmlns="http://www.w3.org/2000/svg"><path d="M2 8.117C35.486-2.507 71.621 3.873 106.75 4.163c12.74.104 25.473-.608 38.212-.814 63.013-1.017 122.313 11.646 184.888 4.16l3.353-.073a3821.614 3821.614 0 0 1 357.852 6.07s7.46.267 11.417.486c22.247 1.237 43.736-8.596 66.012-8.124 11.152.236 21.976 3.569 32.976 5.418 17.677 2.97 35.737 2.097 53.659 2.392 37.192.612 74.367 6.296 111.453 3.434 21.122-1.63 42.173-5.736 63.31-4.322 3.83.256 11.709.452 13.568.289 4.85-.427 9.593-1.606 14.446-1.986 1.662-.132 8.063-.72 10.13-1.371 5.993-1.887 12.51-1.9 18.661-.62 1.197.25 2.423.575 3.373 1.343 1.615 1.306 2.059 3.55 2.324 5.61.457 3.556.701 7.138.73 10.722.01 1.194-.014 2.432-.522 3.513-1.035 2.2-3.645 3.04-5.776 4.209-5.045 2.766-8.13 8.236-9.463 13.834-1.334 5.597-1.165 11.425-1.228 17.179-.009.779-.035 1.603-.455 2.26-.767 1.199-2.443 1.315-3.866 1.303l-9.324-.08c-.769-.007-1.629.021-2.17.568-.561.566-.561 1.463-.525 2.26l.668 14.434c.032.68.08 1.406.497 1.942.64.823 1.848.861 2.89.825l9.543-.325c.94-.031 1.991-.023 2.671.628.445.427.635 1.052.77 1.655.755 3.357.35 6.85.028 10.275a205.803 205.803 0 0 0-.572 31.007c.061 1.08.185 2.276.986 3.003.77.698 1.913.735 2.95.733l13-.019c.683 0 1.4-.01 2-.336 1.314-.717 1.453-2.517 1.427-4.013l-.677-38.38c-.022-1.234.005-2.605.85-3.506.59-.633 1.474-.9 2.33-1.025 2.499-.362 5.023.265 7.543.405 2.52.14 5.341-.365 6.873-2.373 1.104-1.446 1.305-3.365 1.468-5.177.31-3.472.456-7.434-1.997-9.909-3.634-3.666-9.801-1.394-14.908-2.141-.704-.103-1.445-.294-1.923-.82-.294-.324-.459-.742-.603-1.154-1.386-3.949-1.45-8.476.441-12.209 1.892-3.733 5.918-6.464 10.096-6.232 2.793.156 6.193 1.33 7.97-.829.705-.856.886-2.015 1.008-3.117.349-3.17.418-6.37.204-9.551-.062-.927-.16-1.889-.636-2.686-.96-1.605-3.114-2.02-4.98-1.886-1.866.134-3.752.65-5.58.256-4.464-.96-6.107-6.62-5.538-11.151.453-3.61 1.891-7.293 4.803-9.475 1.724-1.292 3.84-1.967 5.962-2.336 9.757-1.698 19.756 2.632 29.566 1.277 3.904-.54 7.656-1.848 11.502-2.707 7.63-1.703 56.101-2.729 76.198.25 20.097 2.976 64.26 11.414 73.937 10.173 9.676-1.24 46.892-6.204 52.351-6.7 5.458-.497 35.503-.917 42.686.038 22.087 2.935 43.737-8.596 66.013-8.125 11.152.236 21.975 3.57 32.976 5.418 17.677 2.971 35.736 2.097 53.659 2.393 37.191.612 74.367 6.296 111.453 3.433 21.122-1.63 42.194-6.028 63.31-4.322" stroke="#000" stroke-width="3" fill="none" fill-rule="evenodd" stroke-linecap="round" stroke-linejoin="round"/></svg>